<svg width="271" height="90" viewBox="0 0 271 90" fill="none" xmlns="http://www.w3.org/2000/svg">
<g filter="url(#filter0_d_270_1082)">
<g filter="url(#filter1_d_270_1082)">
<rect x="6" y="9" width="241" height="60" rx="17" fill="#FFCC00"/>
<rect x="7.5" y="10.5" width="238" height="57" rx="15.5" stroke="black" stroke-width="3"/>
</g>
<path d="M62.5351 39.3417C63.0418 39.4217 63.5018 39.6284 63.9151 39.9617C64.3418 40.2951 64.6751 40.7084 64.9151 41.2017C65.1685 41.6951 65.2951 42.2217 65.2951 42.7817C65.2951 43.4884 65.1151 44.1284 64.7551 44.7017C64.3951 45.2617 63.8685 45.7084 63.1751 46.0417C62.4951 46.3617 61.6885 46.5217 60.7551 46.5217H55.5551V32.5817H60.5551C61.5018 32.5817 62.3085 32.7417 62.9751 33.0617C63.6418 33.3684 64.1418 33.7884 64.4751 34.3217C64.8085 34.8551 64.9751 35.4551 64.9751 36.1217C64.9751 36.9484 64.7485 37.6351 64.2951 38.1817C63.8551 38.7151 63.2685 39.1017 62.5351 39.3417ZM57.3751 38.6017H60.4351C61.2885 38.6017 61.9485 38.4017 62.4151 38.0017C62.8818 37.6017 63.1151 37.0484 63.1151 36.3417C63.1151 35.6351 62.8818 35.0817 62.4151 34.6817C61.9485 34.2817 61.2751 34.0817 60.3951 34.0817H57.3751V38.6017ZM60.5951 45.0217C61.5018 45.0217 62.2085 44.8084 62.7151 44.3817C63.2218 43.9551 63.4751 43.3617 63.4751 42.6017C63.4751 41.8284 63.2085 41.2217 62.6751 40.7817C62.1418 40.3284 61.4285 40.1017 60.5351 40.1017H57.3751V45.0217H60.5951ZM77.3408 35.5617V46.5217H75.5208V44.9017C75.1741 45.4617 74.6874 45.9017 74.0608 46.2217C73.4474 46.5284 72.7674 46.6817 72.0208 46.6817C71.1674 46.6817 70.4008 46.5084 69.7208 46.1617C69.0408 45.8017 68.5008 45.2684 68.1008 44.5617C67.7141 43.8551 67.5208 42.9951 67.5208 41.9817V35.5617H69.3208V41.7417C69.3208 42.8217 69.5941 43.6551 70.1408 44.2417C70.6874 44.8151 71.4341 45.1017 72.3808 45.1017C73.3541 45.1017 74.1208 44.8017 74.6808 44.2017C75.2408 43.6017 75.5208 42.7284 75.5208 41.5817V35.5617H77.3408ZM79.5337 41.0017C79.5337 39.8817 79.7604 38.9017 80.2137 38.0617C80.6671 37.2084 81.2871 36.5484 82.0737 36.0817C82.8737 35.6151 83.7604 35.3817 84.7337 35.3817C85.6937 35.3817 86.5271 35.5884 87.2337 36.0017C87.9404 36.4151 88.4671 36.9351 88.8137 37.5617V35.5617H90.6537V46.5217H88.8137V44.4817C88.4537 45.1217 87.9137 45.6551 87.1937 46.0817C86.4871 46.4951 85.6604 46.7017 84.7137 46.7017C83.7404 46.7017 82.8604 46.4617 82.0737 45.9817C81.2871 45.5017 80.6671 44.8284 80.2137 43.9617C79.7604 43.0951 79.5337 42.1084 79.5337 41.0017ZM88.8137 41.0217C88.8137 40.1951 88.6471 39.4751 88.3137 38.8617C87.9804 38.2484 87.5271 37.7817 86.9537 37.4617C86.3937 37.1284 85.7737 36.9617 85.0937 36.9617C84.4137 36.9617 83.7937 37.1217 83.2337 37.4417C82.6737 37.7617 82.2271 38.2284 81.8937 38.8417C81.5604 39.4551 81.3937 40.1751 81.3937 41.0017C81.3937 41.8417 81.5604 42.5751 81.8937 43.2017C82.2271 43.8151 82.6737 44.2884 83.2337 44.6217C83.7937 44.9417 84.4137 45.1017 85.0937 45.1017C85.7737 45.1017 86.3937 44.9417 86.9537 44.6217C87.5271 44.2884 87.9804 43.8151 88.3137 43.2017C88.6471 42.5751 88.8137 41.8484 88.8137 41.0217ZM95.7494 37.0617V43.5217C95.7494 44.0551 95.8627 44.4351 96.0894 44.6617C96.316 44.8751 96.7094 44.9817 97.2694 44.9817H98.6094V46.5217H96.9694C95.956 46.5217 95.196 46.2884 94.6894 45.8217C94.1827 45.3551 93.9294 44.5884 93.9294 43.5217V37.0617H92.5094V35.5617H93.9294V32.8017H95.7494V35.5617H98.6094V37.0617H95.7494ZM107.567 31.7217V46.5217H105.747V31.7217H107.567ZM109.788 41.0017C109.788 39.8817 110.015 38.9017 110.468 38.0617C110.922 37.2084 111.542 36.5484 112.328 36.0817C113.128 35.6151 114.015 35.3817 114.988 35.3817C115.948 35.3817 116.782 35.5884 117.488 36.0017C118.195 36.4151 118.722 36.9351 119.068 37.5617V35.5617H120.908V46.5217H119.068V44.4817C118.708 45.1217 118.168 45.6551 117.448 46.0817C116.742 46.4951 115.915 46.7017 114.968 46.7017C113.995 46.7017 113.115 46.4617 112.328 45.9817C111.542 45.5017 110.922 44.8284 110.468 43.9617C110.015 43.0951 109.788 42.1084 109.788 41.0017ZM119.068 41.0217C119.068 40.1951 118.902 39.4751 118.568 38.8617C118.235 38.2484 117.782 37.7817 117.208 37.4617C116.648 37.1284 116.028 36.9617 115.348 36.9617C114.668 36.9617 114.048 37.1217 113.488 37.4417C112.928 37.7617 112.482 38.2284 112.148 38.8417C111.815 39.4551 111.648 40.1751 111.648 41.0017C111.648 41.8417 111.815 42.5751 112.148 43.2017C112.482 43.8151 112.928 44.2884 113.488 44.6217C114.048 44.9417 114.668 45.1017 115.348 45.1017C116.028 45.1017 116.648 44.9417 117.208 44.6217C117.782 44.2884 118.235 43.8151 118.568 43.2017C118.902 42.5751 119.068 41.8484 119.068 41.0217ZM125.604 37.5817C125.964 36.9551 126.497 36.4351 127.204 36.0217C127.924 35.5951 128.757 35.3817 129.704 35.3817C130.677 35.3817 131.557 35.6151 132.344 36.0817C133.144 36.5484 133.771 37.2084 134.224 38.0617C134.677 38.9017 134.904 39.8817 134.904 41.0017C134.904 42.1084 134.677 43.0951 134.224 43.9617C133.771 44.8284 133.144 45.5017 132.344 45.9817C131.557 46.4617 130.677 46.7017 129.704 46.7017C128.771 46.7017 127.944 46.4951 127.224 46.0817C126.517 45.6551 125.977 45.1284 125.604 44.5017V51.7217H123.784V35.5617H125.604V37.5817ZM133.044 41.0017C133.044 40.1751 132.877 39.4551 132.544 38.8417C132.211 38.2284 131.757 37.7617 131.184 37.4417C130.624 37.1217 130.004 36.9617 129.324 36.9617C128.657 36.9617 128.037 37.1284 127.464 37.4617C126.904 37.7817 126.451 38.2551 126.104 38.8817C125.771 39.4951 125.604 40.2084 125.604 41.0217C125.604 41.8484 125.771 42.5751 126.104 43.2017C126.451 43.8151 126.904 44.2884 127.464 44.6217C128.037 44.9417 128.657 45.1017 129.324 45.1017C130.004 45.1017 130.624 44.9417 131.184 44.6217C131.757 44.2884 132.211 43.8151 132.544 43.2017C132.877 42.5751 133.044 41.8417 133.044 41.0017ZM141.88 46.7017C140.853 46.7017 139.92 46.4684 139.08 46.0017C138.253 45.5351 137.6 44.8751 137.12 44.0217C136.653 43.1551 136.42 42.1551 136.42 41.0217C136.42 39.9017 136.66 38.9151 137.14 38.0617C137.633 37.1951 138.3 36.5351 139.14 36.0817C139.98 35.6151 140.92 35.3817 141.96 35.3817C143 35.3817 143.94 35.6151 144.78 36.0817C145.62 36.5351 146.28 37.1884 146.76 38.0417C147.253 38.8951 147.5 39.8884 147.5 41.0217C147.5 42.1551 147.246 43.1551 146.74 44.0217C146.246 44.8751 145.573 45.5351 144.72 46.0017C143.866 46.4684 142.92 46.7017 141.88 46.7017ZM141.88 45.1017C142.533 45.1017 143.146 44.9484 143.72 44.6417C144.293 44.3351 144.753 43.8751 145.1 43.2617C145.46 42.6484 145.64 41.9017 145.64 41.0217C145.64 40.1417 145.466 39.3951 145.12 38.7817C144.773 38.1684 144.32 37.7151 143.76 37.4217C143.2 37.1151 142.593 36.9617 141.94 36.9617C141.273 36.9617 140.66 37.1151 140.1 37.4217C139.553 37.7151 139.113 38.1684 138.78 38.7817C138.446 39.3951 138.28 40.1417 138.28 41.0217C138.28 41.9151 138.44 42.6684 138.76 43.2817C139.093 43.8951 139.533 44.3551 140.08 44.6617C140.626 44.9551 141.226 45.1017 141.88 45.1017ZM151.513 37.3417C151.833 36.7151 152.286 36.2284 152.873 35.8817C153.473 35.5351 154.199 35.3617 155.053 35.3617V37.2417H154.573C152.533 37.2417 151.513 38.3484 151.513 40.5617V46.5217H149.693V35.5617H151.513V37.3417ZM156.274 41.0017C156.274 39.8817 156.5 38.9017 156.954 38.0617C157.407 37.2084 158.027 36.5484 158.814 36.0817C159.614 35.6151 160.5 35.3817 161.474 35.3817C162.434 35.3817 163.267 35.5884 163.974 36.0017C164.68 36.4151 165.207 36.9351 165.554 37.5617V35.5617H167.394V46.5217H165.554V44.4817C165.194 45.1217 164.654 45.6551 163.934 46.0817C163.227 46.4951 162.4 46.7017 161.454 46.7017C160.48 46.7017 159.6 46.4617 158.814 45.9817C158.027 45.5017 157.407 44.8284 156.954 43.9617C156.5 43.0951 156.274 42.1084 156.274 41.0017ZM165.554 41.0217C165.554 40.1951 165.387 39.4751 165.054 38.8617C164.72 38.2484 164.267 37.7817 163.694 37.4617C163.134 37.1284 162.514 36.9617 161.834 36.9617C161.154 36.9617 160.534 37.1217 159.974 37.4417C159.414 37.7617 158.967 38.2284 158.634 38.8417C158.3 39.4551 158.134 40.1751 158.134 41.0017C158.134 41.8417 158.3 42.5751 158.634 43.2017C158.967 43.8151 159.414 44.2884 159.974 44.6217C160.534 44.9417 161.154 45.1017 161.834 45.1017C162.514 45.1017 163.134 44.9417 163.694 44.6217C164.267 44.2884 164.72 43.8151 165.054 43.2017C165.387 42.5751 165.554 41.8484 165.554 41.0217ZM175.609 35.3617C176.943 35.3617 178.023 35.7684 178.849 36.5817C179.676 37.3817 180.089 38.5417 180.089 40.0617V46.5217H178.289V40.3217C178.289 39.2284 178.016 38.3951 177.469 37.8217C176.923 37.2351 176.176 36.9417 175.229 36.9417C174.269 36.9417 173.503 37.2417 172.929 37.8417C172.369 38.4417 172.089 39.3151 172.089 40.4617V46.5217H170.269V35.5617H172.089V37.1217C172.449 36.5617 172.936 36.1284 173.549 35.8217C174.176 35.5151 174.863 35.3617 175.609 35.3617Z" fill="black"/>
</g>
<defs>
<filter id="filter0_d_270_1082" x="0.5" y="0.5" width="270" height="89" filterUnits="userSpaceOnUse" color-interpolation-filters="sRGB">
<feFlood flood-opacity="0" result="BackgroundImageFix"/>
<feColorMatrix in="SourceAlpha" type="matrix" values="0 0 0 0 0 0 0 0 0 0 0 0 0 0 0 0 0 0 127 0" result="hardAlpha"/>
<feOffset dx="9" dy="6"/>
<feGaussianBlur stdDeviation="7.25"/>
<feComposite in2="hardAlpha" operator="out"/>
<feColorMatrix type="matrix" values="0 0 0 0 0 0 0 0 0 0 0 0 0 0 0 0 0 0 0.25 0"/>
<feBlend mode="normal" in2="BackgroundImageFix" result="effect1_dropShadow_270_1082"/>
<feBlend mode="normal" in="SourceGraphic" in2="effect1_dropShadow_270_1082" result="shape"/>
</filter>
<filter id="filter1_d_270_1082" x="2" y="9" width="249" height="68" filterUnits="userSpaceOnUse" color-interpolation-filters="sRGB">
<feFlood flood-opacity="0" result="BackgroundImageFix"/>
<feColorMatrix in="SourceAlpha" type="matrix" values="0 0 0 0 0 0 0 0 0 0 0 0 0 0 0 0 0 0 127 0" result="hardAlpha"/>
<feOffset dy="4"/>
<feGaussianBlur stdDeviation="2"/>
<feComposite in2="hardAlpha" operator="out"/>
<feColorMatrix type="matrix" values="0 0 0 0 0 0 0 0 0 0 0 0 0 0 0 0 0 0 0.25 0"/>
<feBlend mode="normal" in2="BackgroundImageFix" result="effect1_dropShadow_270_1082"/>
<feBlend mode="normal" in="SourceGraphic" in2="effect1_dropShadow_270_1082" result="shape"/>
</filter>
</defs>
</svg>
