<svg width="30" height="35" viewBox="0 0 30 35" fill="none" xmlns="http://www.w3.org/2000/svg">
<path d="M0 29.75V26.25H3.75V14C3.75 11.5792 4.53125 9.43542 6.09375 7.56875C7.65625 5.67292 9.6875 4.43333 12.1875 3.85V2.625C12.1875 1.89583 12.4531 1.28333 12.9844 0.787498C13.5469 0.262499 14.2188 0 15 0C15.7813 0 16.4375 0.262499 16.9688 0.787498C17.5313 1.28333 17.8125 1.89583 17.8125 2.625V3.85C20.3125 4.43333 22.3438 5.67292 23.9062 7.56875C25.4688 9.43542 26.25 11.5792 26.25 14V26.25H30V29.75H0ZM15 35C13.9688 35 13.0781 34.6646 12.3281 33.9937C11.6094 33.2937 11.25 32.4625 11.25 31.5H18.75C18.75 32.4625 18.375 33.2937 17.625 33.9937C16.9062 34.6646 16.0313 35 15 35ZM7.5 26.25H22.5V14C22.5 12.075 21.7656 10.4271 20.2969 9.05625C18.8281 7.68542 17.0625 7 15 7C12.9375 7 11.1719 7.68542 9.70313 9.05625C8.23438 10.4271 7.5 12.075 7.5 14V26.25Z" fill="white"/>
</svg>
