<svg width="54" height="47" viewBox="0 0 54 47" fill="none" xmlns="http://www.w3.org/2000/svg">
<path d="M9 37.2084V33.2917H13.5V19.5834C13.5 16.8743 14.4375 14.4754 16.3125 12.3865C18.1875 10.2649 20.625 8.8778 23.625 8.22502V6.85419C23.625 6.03821 23.9438 5.3528 24.5813 4.79793C25.2563 4.21044 26.0625 3.91669 27 3.91669C27.9375 3.91669 28.725 4.21044 29.3625 4.79793C30.0375 5.3528 30.375 6.03821 30.375 6.85419V8.22502C33.375 8.8778 35.8125 10.2649 37.6875 12.3865C39.5625 14.4754 40.5 16.8743 40.5 19.5834V33.2917H45V37.2084H9ZM27 43.0834C25.7625 43.0834 24.6938 42.708 23.7938 41.9573C22.9313 41.174 22.5 40.2438 22.5 39.1667H31.5C31.5 40.2438 31.05 41.174 30.15 41.9573C29.2875 42.708 28.2375 43.0834 27 43.0834ZM18 33.2917H36V19.5834C36 17.4292 35.1188 15.5851 33.3563 14.0511C31.5938 12.517 29.475 11.75 27 11.75C24.525 11.75 22.4063 12.517 20.6438 14.0511C18.8813 15.5851 18 17.4292 18 19.5834V33.2917Z" fill="white"/>
</svg>
